<svg version="1.1" xmlns="http://www.w3.org/2000/svg" xmlns:xlink="http://www.w3.org/1999/xlink" x="0px" y="0px"
	 viewBox="0 0 126 35.6" enable-background="new 0 0 126 35.6" xml:space="preserve">
<g>
	<g>
		<g>
			<circle fill="#FFFFFF" cx="33.1" cy="30.8" r="2.1"/>
			<circle fill="#FFFFFF" cx="24.6" cy="30.8" r="2.1"/>
			<path fill="#FFFFFF" d="M43.8,30.8c0,1.2-1,2.1-2.1,2.1c-1.2,0-2.1-1-2.1-2.1c0-1.2,1-2.1,2.1-2.1C42.8,28.7,43.8,29.7,43.8,30.8
				z"/>
		</g>
		<g>
			<rect x="63.5" y="23.7" fill="#FFFFFF" width="2" height="2"/>
			<rect x="89.9" y="23.7" fill="#FFFFFF" width="2" height="2"/>
			<path fill="#FFFFFF" d="M72.3,25.8c-3.9,0-6.3-2.8-6.3-7.3c0-4.5,2.4-7.3,6.3-7.3c2,0,3.3,0.6,4.7,2.2l0.1,0.1l-1.2,1.1l-0.1-0.1
				c-1.2-1.3-2-1.7-3.5-1.7c-1.6,0-2.8,0.6-3.6,1.8c-0.7,1-0.9,2.1-0.9,3.9c0,1.9,0.3,2.9,0.9,3.9c0.8,1.2,2,1.8,3.6,1.8
				c1.4,0,2.3-0.4,3.5-1.7l0.1-0.1l1.2,1.1L77,23.6C75.5,25.2,74.3,25.8,72.3,25.8z"/>
			<path fill="#FFFFFF" d="M83.6,25.8c-1.6,0-2.9-0.5-4-1.6c-1.6-1.6-1.8-3.9-1.8-5.7c0-1.8,0.2-4.1,1.8-5.7c1-1,2.4-1.6,4-1.6
				c1.6,0,2.9,0.5,4,1.6c1.6,1.6,1.8,3.9,1.8,5.7c0,1.8-0.2,4.1-1.8,5.7C86.6,25.3,85.2,25.8,83.6,25.8z M83.6,12.8
				c-1.1,0-2,0.4-2.8,1.2c-1.1,1.1-1.2,2.9-1.2,4.6c0,1.6,0.1,3.5,1.2,4.6c0.8,0.8,1.7,1.2,2.8,1.2c1.1,0,2-0.4,2.8-1.2
				c1.1-1.1,1.2-2.9,1.2-4.6c0-1.6-0.1-3.5-1.2-4.6C85.7,13.2,84.7,12.8,83.6,12.8z"/>
			<path fill="#FFFFFF" d="M98.1,25.8c-1.6,0-2.9-0.5-3.8-1.4c-1-1-1.5-2.3-1.5-4v-9.1h1.7v8.8c0,2.6,1.3,4,3.7,4
				c2.5,0,3.8-1.4,3.8-4v-8.8h1.7v14.2h-1.7v-1.4C101,25.3,99.7,25.8,98.1,25.8z"/>
			<path fill="#FFFFFF" d="M117.4,25.6h-2.1l-4.8-7.6l-3,3.5v4.1h-1.7V4.7h1.7v14.3l6.7-7.7h2.2l-4.7,5.4L117.4,25.6z"/>
		</g>
	</g>
	<g>
		<path fill="#FFFFFF" d="M12.3,25.6H8.5V10.2h3.7v1c0.9-0.8,2.1-1.2,3.5-1.2c1.2,0,2.3,0.4,3.3,1.2l0.3,0.2l-2.6,3.1l-0.3-0.2
			c-0.6-0.4-1.1-0.6-1.7-0.6c-0.8,0-1.4,0.2-1.8,0.7c-0.4,0.5-0.7,1.1-0.7,2V25.6z"/>
		<path fill="#FFFFFF" d="M26.2,25.8c-2.3,0-4.1-0.8-5.3-2.3c-1.1-1.3-1.6-3.2-1.6-5.6c0-2.2,0.5-4.1,1.5-5.5c1.2-1.7,2.8-2.5,5-2.5
			c1.9,0,3.4,0.6,4.6,1.9c1.2,1.3,1.8,2.8,1.8,4.7v2.8H23c0.1,0.8,0.3,1.5,0.8,2c0.5,0.6,1.3,0.9,2.3,0.9c1.1,0,2.1-0.4,2.9-1.3
			l0.3-0.3l2.7,2.3l-0.3,0.3C30.4,25,28.5,25.8,26.2,25.8z M23,16.2h5.4c-0.1-0.7-0.3-1.3-0.7-1.8c-0.5-0.6-1.1-0.9-2-0.9
			c-0.9,0-1.5,0.3-2,0.8C23.4,14.9,23.1,15.5,23,16.2z"/>
		<path fill="#FFFFFF" d="M41.1,25.8c-2.3,0-4.1-0.8-5.3-2.3c-1.1-1.3-1.6-3.2-1.6-5.6c0-2.2,0.5-4.1,1.5-5.5c1.2-1.7,2.8-2.5,5-2.5
			c1.9,0,3.4,0.6,4.6,1.9c1.2,1.3,1.8,2.8,1.8,4.7v2.8h-9.1c0.1,0.8,0.3,1.5,0.8,2c0.5,0.6,1.3,0.9,2.3,0.9c1.1,0,2.1-0.4,2.9-1.3
			l0.3-0.3l2.7,2.3l-0.3,0.3C45.2,25,43.3,25.8,41.1,25.8z M37.9,16.2h5.4c-0.1-0.7-0.3-1.3-0.7-1.8c-0.5-0.6-1.1-0.9-2-0.9
			c-0.9,0-1.5,0.3-2,0.8C38.2,14.9,38,15.5,37.9,16.2z"/>
		<path fill="#FFFFFF" d="M54.4,25.8c-1.7,0-3.2-0.7-4.2-2.1c-0.5-0.7-0.9-1.7-1-2.9c-0.1-0.5-0.1-1.5-0.1-3c0-1.5,0-2.5,0.1-2.9
			c0.1-1.2,0.5-2.2,1-2.9c1.1-1.4,2.5-2.1,4.3-2.1c1.2,0,2.3,0.4,3.4,1.3v-7h3.7v21.4h-3.7v-1C56.9,25.4,55.7,25.8,54.4,25.8z
			 M55.3,13.7c-1.1,0-1.8,0.4-2.2,1.2c-0.2,0.6-0.4,1.6-0.4,2.9c0,1.4,0.1,2.4,0.4,2.9c0.4,0.8,1.1,1.2,2.2,1.2
			c1.1,0,1.8-0.4,2.1-1.2c0.2-0.6,0.4-1.6,0.4-2.9c0-1.4-0.1-2.3-0.4-2.9C57.1,14.1,56.4,13.7,55.3,13.7z"/>
	</g>
</g>
</svg>
